<svg id="visual" viewBox="0 0 900 600" width="900" height="600" xmlns="http://www.w3.org/2000/svg" xmlns:xlink="http://www.w3.org/1999/xlink" version="1.1"><rect x="0" y="0" width="900" height="600" fill="#312D2B"></rect><g fill="#44403C"><circle r="14" cx="372" cy="474"></circle><circle r="6" cx="45" cy="160"></circle><circle r="6" cx="158" cy="554"></circle><circle r="10" cx="788" cy="367"></circle><circle r="6" cx="130" cy="166"></circle><circle r="12" cx="607" cy="570"></circle><circle r="8" cx="546" cy="93"></circle><circle r="6" cx="751" cy="495"></circle><circle r="5" cx="575" cy="391"></circle><circle r="6" cx="754" cy="132"></circle><circle r="10" cx="696" cy="128"></circle><circle r="12" cx="12" cy="302"></circle><circle r="10" cx="385" cy="549"></circle><circle r="11" cx="651" cy="165"></circle><circle r="7" cx="387" cy="452"></circle><circle r="5" cx="617" cy="207"></circle><circle r="10" cx="279" cy="539"></circle><circle r="8" cx="111" cy="141"></circle><circle r="11" cx="556" cy="213"></circle><circle r="7" cx="191" cy="117"></circle><circle r="7" cx="153" cy="444"></circle><circle r="10" cx="832" cy="131"></circle><circle r="12" cx="741" cy="406"></circle><circle r="5" cx="168" cy="217"></circle><circle r="11" cx="799" cy="167"></circle><circle r="11" cx="542" cy="240"></circle><circle r="8" cx="225" cy="336"></circle><circle r="9" cx="678" cy="412"></circle><circle r="12" cx="833" cy="429"></circle><circle r="8" cx="324" cy="409"></circle><circle r="6" cx="255" cy="438"></circle><circle r="8" cx="277" cy="255"></circle><circle r="10" cx="202" cy="201"></circle><circle r="9" cx="26" cy="416"></circle><circle r="10" cx="839" cy="469"></circle><circle r="6" cx="761" cy="2"></circle><circle r="11" cx="134" cy="417"></circle><circle r="9" cx="770" cy="251"></circle><circle r="8" cx="462" cy="170"></circle><circle r="11" cx="481" cy="410"></circle><circle r="11" cx="285" cy="27"></circle><circle r="8" cx="217" cy="470"></circle><circle r="6" cx="751" cy="209"></circle><circle r="10" cx="876" cy="323"></circle><circle r="5" cx="617" cy="82"></circle><circle r="10" cx="769" cy="589"></circle><circle r="10" cx="386" cy="121"></circle><circle r="6" cx="127" cy="495"></circle><circle r="8" cx="40" cy="507"></circle><circle r="5" cx="97" cy="67"></circle><circle r="8" cx="769" cy="433"></circle><circle r="10" cx="222" cy="439"></circle><circle r="9" cx="20" cy="337"></circle><circle r="9" cx="394" cy="3"></circle><circle r="5" cx="887" cy="120"></circle><circle r="12" cx="352" cy="201"></circle><circle r="10" cx="382" cy="286"></circle><circle r="11" cx="797" cy="126"></circle><circle r="10" cx="98" cy="576"></circle><circle r="8" cx="861" cy="47"></circle><circle r="8" cx="453" cy="372"></circle><circle r="7" cx="68" cy="421"></circle><circle r="12" cx="749" cy="65"></circle><circle r="5" cx="224" cy="593"></circle><circle r="5" cx="210" cy="264"></circle><circle r="12" cx="605" cy="428"></circle><circle r="11" cx="24" cy="574"></circle><circle r="10" cx="7" cy="453"></circle><circle r="5" cx="2" cy="516"></circle><circle r="8" cx="531" cy="301"></circle><circle r="10" cx="466" cy="78"></circle><circle r="12" cx="558" cy="327"></circle><circle r="6" cx="229" cy="306"></circle><circle r="8" cx="688" cy="197"></circle><circle r="11" cx="319" cy="247"></circle><circle r="9" cx="309" cy="173"></circle><circle r="10" cx="812" cy="14"></circle><circle r="5" cx="105" cy="413"></circle><circle r="8" cx="676" cy="20"></circle><circle r="6" cx="849" cy="163"></circle><circle r="12" cx="265" cy="164"></circle><circle r="7" cx="885" cy="509"></circle><circle r="8" cx="297" cy="487"></circle><circle r="6" cx="810" cy="561"></circle><circle r="5" cx="836" cy="364"></circle><circle r="5" cx="577" cy="149"></circle><circle r="12" cx="786" cy="520"></circle><circle r="7" cx="255" cy="224"></circle><circle r="10" cx="96" cy="291"></circle><circle r="11" cx="652" cy="443"></circle><circle r="11" cx="522" cy="39"></circle><circle r="7" cx="148" cy="582"></circle><circle r="12" cx="423" cy="22"></circle><circle r="5" cx="896" cy="348"></circle><circle r="5" cx="722" cy="211"></circle><circle r="7" cx="722" cy="79"></circle><circle r="8" cx="59" cy="76"></circle><circle r="11" cx="157" cy="12"></circle><circle r="10" cx="16" cy="49"></circle><circle r="5" cx="747" cy="448"></circle><circle r="5" cx="679" cy="569"></circle><circle r="11" cx="497" cy="91"></circle><circle r="8" cx="624" cy="342"></circle><circle r="10" cx="275" cy="513"></circle><circle r="7" cx="51" cy="26"></circle><circle r="7" cx="568" cy="476"></circle><circle r="5" cx="815" cy="451"></circle><circle r="11" cx="464" cy="249"></circle><circle r="8" cx="17" cy="10"></circle><circle r="5" cx="174" cy="513"></circle><circle r="9" cx="890" cy="572"></circle><circle r="11" cx="266" cy="402"></circle><circle r="6" cx="707" cy="337"></circle><circle r="8" cx="282" cy="565"></circle><circle r="8" cx="643" cy="235"></circle><circle r="8" cx="382" cy="88"></circle><circle r="5" cx="345" cy="279"></circle><circle r="5" cx="580" cy="114"></circle><circle r="10" cx="424" cy="129"></circle><circle r="6" cx="61" cy="597"></circle><circle r="12" cx="498" cy="182"></circle><circle r="8" cx="678" cy="307"></circle><circle r="7" cx="687" cy="282"></circle><circle r="10" cx="898" cy="302"></circle><circle r="11" cx="266" cy="301"></circle><circle r="11" cx="464" cy="289"></circle><circle r="10" cx="525" cy="358"></circle><circle r="6" cx="488" cy="302"></circle><circle r="5" cx="160" cy="397"></circle><circle r="5" cx="589" cy="275"></circle><circle r="12" cx="653" cy="293"></circle><circle r="10" cx="789" cy="483"></circle><circle r="6" cx="559" cy="36"></circle><circle r="12" cx="274" cy="111"></circle><circle r="11" cx="806" cy="199"></circle><circle r="9" cx="123" cy="86"></circle><circle r="11" cx="455" cy="502"></circle><circle r="10" cx="133" cy="49"></circle><circle r="6" cx="672" cy="504"></circle><circle r="8" cx="878" cy="444"></circle><circle r="5" cx="417" cy="158"></circle><circle r="10" cx="811" cy="592"></circle><circle r="12" cx="368" cy="143"></circle><circle r="10" cx="139" cy="131"></circle><circle r="5" cx="191" cy="8"></circle><circle r="8" cx="283" cy="143"></circle></g></svg>