<svg id="visual" viewBox="0 0 900 600" width="900" height="600" xmlns="http://www.w3.org/2000/svg" xmlns:xlink="http://www.w3.org/1999/xlink" version="1.1">
  <rect x="0" y="0" width="900" height="600" fill="#292524"></rect>
  <path d="M0 283L129 301L257 293L386 224L514 209L643 194L771 279L900 242L900 601L771 601L643 601L514 601L386 601L257 601L129 601L0 601Z" fill="#514947"></path>
  <path d="M0 317L129 327L257 355L386 331L514 265L643 232L771 339L900 332L900 601L771 601L643 601L514 601L386 601L257 601L129 601L0 601Z" fill="#5d5452"></path>
  <path d="M0 275L129 333L257 364L386 323L514 382L643 270L771 285L900 353L900 601L771 601L643 601L514 601L386 601L257 601L129 601L0 601Z" fill="#695f5d"></path>
  <path d="M0 349L129 308L257 399L386 386L514 373L643 390L771 328L900 316L900 601L771 601L643 601L514 601L386 601L257 601L129 601L0 601Z" fill="#776b69"></path>
  <path d="M0 365L129 421L257 362L386 423L514 406L643 441L771 416L900 356L900 601L771 601L643 601L514 601L386 601L257 601L129 601L0 601Z" fill="#837674"></path>
  <path d="M0 434L129 454L257 469L386 428L514 430L643 427L771 443L900 396L900 601L771 601L643 601L514 601L386 601L257 601L129 601L0 601Z" fill="#918381"></path>
  <path d="M0 453L129 490L257 478L386 496L514 487L643 444L771 493L900 475L900 601L771 601L643 601L514 601L386 601L257 601L129 601L0 601Z" fill="#9f8f8d"></path>
  <path d="M0 487L129 526L257 483L386 486L514 494L643 519L771 483L900 496L900 601L771 601L643 601L514 601L386 601L257 601L129 601L0 601Z" fill="#9f8f8c"></path>
  <path d="M0 542L129 524L257 543L386 524L514 544L643 526L771 529L900 550L900 601L771 601L643 601L514 601L386 601L257 601L129 601L0 601Z" fill="#a99995"></path>
</svg>