<svg id="visual" viewBox="0 0 900 600" width="900" height="600" xmlns="http://www.w3.org/2000/svg" xmlns:xlink="http://www.w3.org/1999/xlink" version="1.1">
  <path d="M0 13L45 13L45 103L90 103L90 85L135 85L135 115L180 115L180 127L225 127L225 49L270 49L270 67L315 67L315 49L360 49L360 79L405 79L405 85L450 85L450 25L495 25L495 91L540 91L540 109L585 109L585 103L630 103L630 91L675 91L675 91L720 91L720 151L765 151L765 31L810 31L810 19L855 19L855 91L900 91L900 61L900 0L900 0L855 0L855 0L810 0L810 0L765 0L765 0L720 0L720 0L675 0L675 0L630 0L630 0L585 0L585 0L540 0L540 0L495 0L495 0L450 0L450 0L405 0L405 0L360 0L360 0L315 0L315 0L270 0L270 0L225 0L225 0L180 0L180 0L135 0L135 0L90 0L90 0L45 0L45 0L0 0Z" fill="#065f46"></path>
  <path d="M0 43L45 43L45 139L90 139L90 91L135 91L135 151L180 151L180 157L225 157L225 67L270 67L270 91L315 91L315 79L360 79L360 103L405 103L405 103L450 103L450 79L495 79L495 97L540 97L540 145L585 145L585 121L630 121L630 133L675 133L675 133L720 133L720 187L765 187L765 73L810 73L810 73L855 73L855 97L900 97L900 79L900 59L900 89L855 89L855 17L810 17L810 29L765 29L765 149L720 149L720 89L675 89L675 89L630 89L630 101L585 101L585 107L540 107L540 89L495 89L495 23L450 23L450 83L405 83L405 77L360 77L360 47L315 47L315 65L270 65L270 47L225 47L225 125L180 125L180 113L135 113L135 83L90 83L90 101L45 101L45 11L0 11Z" fill="#265738"></path>
  <path d="M0 193L45 193L45 235L90 235L90 217L135 217L135 247L180 247L180 271L225 271L225 175L270 175L270 313L315 313L315 319L360 319L360 145L405 145L405 217L450 217L450 193L495 193L495 289L540 289L540 271L585 271L585 259L630 259L630 181L675 181L675 211L720 211L720 373L765 373L765 319L810 319L810 157L855 157L855 271L900 271L900 343L900 77L900 95L855 95L855 71L810 71L810 71L765 71L765 185L720 185L720 131L675 131L675 131L630 131L630 119L585 119L585 143L540 143L540 95L495 95L495 77L450 77L450 101L405 101L405 101L360 101L360 77L315 77L315 89L270 89L270 65L225 65L225 155L180 155L180 149L135 149L135 89L90 89L90 137L45 137L45 41L0 41Z" fill="#33502e"></path>
  <path d="M0 229L45 229L45 259L90 259L90 271L135 271L135 283L180 283L180 313L225 313L225 181L270 181L270 367L315 367L315 355L360 355L360 157L405 157L405 229L450 229L450 235L495 235L495 307L540 307L540 307L585 307L585 295L630 295L630 205L675 205L675 229L720 229L720 427L765 427L765 331L810 331L810 211L855 211L855 295L900 295L900 373L900 341L900 269L855 269L855 155L810 155L810 317L765 317L765 371L720 371L720 209L675 209L675 179L630 179L630 257L585 257L585 269L540 269L540 287L495 287L495 191L450 191L450 215L405 215L405 143L360 143L360 317L315 317L315 311L270 311L270 173L225 173L225 269L180 269L180 245L135 245L135 215L90 215L90 233L45 233L45 191L0 191Z" fill="#3a4827"></path>
  <path d="M0 367L45 367L45 487L90 487L90 391L135 391L135 457L180 457L180 391L225 391L225 295L270 295L270 397L315 397L315 379L360 379L360 331L405 331L405 343L450 343L450 349L495 349L495 343L540 343L540 475L585 475L585 337L630 337L630 355L675 355L675 361L720 361L720 463L765 463L765 421L810 421L810 421L855 421L855 313L900 313L900 415L900 371L900 293L855 293L855 209L810 209L810 329L765 329L765 425L720 425L720 227L675 227L675 203L630 203L630 293L585 293L585 305L540 305L540 305L495 305L495 233L450 233L450 227L405 227L405 155L360 155L360 353L315 353L315 365L270 365L270 179L225 179L225 311L180 311L180 281L135 281L135 269L90 269L90 257L45 257L45 227L0 227Z" fill="#3e4124"></path>
  <path d="M0 415L45 415L45 535L90 535L90 421L135 421L135 487L180 487L180 403L225 403L225 343L270 343L270 433L315 433L315 421L360 421L360 385L405 385L405 403L450 403L450 367L495 367L495 397L540 397L540 493L585 493L585 361L630 361L630 397L675 397L675 373L720 373L720 469L765 469L765 457L810 457L810 445L855 445L855 349L900 349L900 421L900 413L900 311L855 311L855 419L810 419L810 419L765 419L765 461L720 461L720 359L675 359L675 353L630 353L630 335L585 335L585 473L540 473L540 341L495 341L495 347L450 347L450 341L405 341L405 329L360 329L360 377L315 377L315 395L270 395L270 293L225 293L225 389L180 389L180 455L135 455L135 389L90 389L90 485L45 485L45 365L0 365Z" fill="#3f3923"></path>
  <path d="M0 505L45 505L45 547L90 547L90 439L135 439L135 541L180 541L180 463L225 463L225 421L270 421L270 499L315 499L315 433L360 433L360 457L405 457L405 463L450 463L450 451L495 451L495 457L540 457L540 505L585 505L585 469L630 469L630 511L675 511L675 463L720 463L720 565L765 565L765 481L810 481L810 493L855 493L855 409L900 409L900 493L900 419L900 347L855 347L855 443L810 443L810 455L765 455L765 467L720 467L720 371L675 371L675 395L630 395L630 359L585 359L585 491L540 491L540 395L495 395L495 365L450 365L450 401L405 401L405 383L360 383L360 419L315 419L315 431L270 431L270 341L225 341L225 401L180 401L180 485L135 485L135 419L90 419L90 533L45 533L45 413L0 413Z" fill="#3d3323"></path>
  <path d="M0 547L45 547L45 571L90 571L90 505L135 505L135 553L180 553L180 469L225 469L225 463L270 463L270 517L315 517L315 487L360 487L360 487L405 487L405 523L450 523L450 511L495 511L495 505L540 505L540 553L585 553L585 493L630 493L630 517L675 517L675 505L720 505L720 571L765 571L765 499L810 499L810 523L855 523L855 475L900 475L900 547L900 491L900 407L855 407L855 491L810 491L810 479L765 479L765 563L720 563L720 461L675 461L675 509L630 509L630 467L585 467L585 503L540 503L540 455L495 455L495 449L450 449L450 461L405 461L405 455L360 455L360 431L315 431L315 497L270 497L270 419L225 419L225 461L180 461L180 539L135 539L135 437L90 437L90 545L45 545L45 503L0 503Z" fill="#382d24"></path>
  <path d="M0 571L45 571L45 583L90 583L90 553L135 553L135 565L180 565L180 505L225 505L225 517L270 517L270 571L315 571L315 541L360 541L360 541L405 541L405 595L450 595L450 517L495 517L495 541L540 541L540 571L585 571L585 571L630 571L630 565L675 565L675 535L720 535L720 583L765 583L765 577L810 577L810 589L855 589L855 547L900 547L900 583L900 545L900 473L855 473L855 521L810 521L810 497L765 497L765 569L720 569L720 503L675 503L675 515L630 515L630 491L585 491L585 551L540 551L540 503L495 503L495 509L450 509L450 521L405 521L405 485L360 485L360 485L315 485L315 515L270 515L270 461L225 461L225 467L180 467L180 551L135 551L135 503L90 503L90 569L45 569L45 545L0 545Z" fill="#322925"></path>
  <path d="M0 601L45 601L45 601L90 601L90 601L135 601L135 601L180 601L180 601L225 601L225 601L270 601L270 601L315 601L315 601L360 601L360 601L405 601L405 601L450 601L450 601L495 601L495 601L540 601L540 601L585 601L585 601L630 601L630 601L675 601L675 601L720 601L720 601L765 601L765 601L810 601L810 601L855 601L855 601L900 601L900 601L900 581L900 545L855 545L855 587L810 587L810 575L765 575L765 581L720 581L720 533L675 533L675 563L630 563L630 569L585 569L585 569L540 569L540 539L495 539L495 515L450 515L450 593L405 593L405 539L360 539L360 539L315 539L315 569L270 569L270 515L225 515L225 503L180 503L180 563L135 563L135 551L90 551L90 581L45 581L45 569L0 569Z" fill="#292524"></path>
</svg>