<svg id="visual" viewBox="0 0 900 600" width="900" height="600" xmlns="http://www.w3.org/2000/svg" xmlns:xlink="http://www.w3.org/1999/xlink" version="1.1"><path d="M0 67L150 103L300 85L450 61L600 85L750 61L900 85L900 0L750 0L600 0L450 0L300 0L150 0L0 0Z" fill="#292524"></path><path d="M0 151L150 175L300 127L450 121L600 163L750 109L900 133L900 83L750 59L600 83L450 59L300 83L150 101L0 65Z" fill="#2f2a29"></path><path d="M0 331L150 253L300 241L450 205L600 295L750 307L900 271L900 131L750 107L600 161L450 119L300 125L150 173L0 149Z" fill="#342f2e"></path><path d="M0 361L150 337L300 295L450 241L600 379L750 337L900 367L900 269L750 305L600 293L450 203L300 239L150 251L0 329Z" fill="#3a3532"></path><path d="M0 529L150 487L300 505L450 463L600 475L750 529L900 541L900 365L750 335L600 377L450 239L300 293L150 335L0 359Z" fill="#3f3a37"></path><path d="M0 601L150 601L300 601L450 601L600 601L750 601L900 601L900 539L750 527L600 473L450 461L300 503L150 485L0 527Z" fill="#44403c"></path></svg>