<svg id="visual" viewBox="0 0 900 600" width="900" height="600" xmlns="http://www.w3.org/2000/svg" xmlns:xlink="http://www.w3.org/1999/xlink" version="1.1">
  <path d="M0 37L100 55L200 55L300 55L400 25L500 55L600 13L700 13L800 13L900 7L900 0L800 0L700 0L600 0L500 0L400 0L300 0L200 0L100 0L0 0Z" fill="#514d48"></path>
  <path d="M0 253L100 169L200 139L300 187L400 139L500 127L600 157L700 175L800 67L900 49L900 5L800 11L700 11L600 11L500 53L400 23L300 53L200 53L100 53L0 35Z" fill="#4c4843"></path>
  <path d="M0 265L100 235L200 199L300 217L400 211L500 187L600 199L700 217L800 103L900 127L900 47L800 65L700 173L600 155L500 125L400 137L300 185L200 137L100 167L0 251Z" fill="#47423e"></path>
  <path d="M0 295L100 295L200 253L300 235L400 241L500 205L600 271L700 229L800 151L900 139L900 125L800 101L700 215L600 197L500 185L400 209L300 215L200 197L100 233L0 263Z" fill="#423d3a"></path>
  <path d="M0 313L100 379L200 307L300 271L400 295L500 271L600 337L700 319L800 217L900 157L900 137L800 149L700 227L600 269L500 203L400 239L300 233L200 251L100 293L0 293Z" fill="#3d3835"></path>
  <path d="M0 409L100 415L200 361L300 373L400 433L500 379L600 427L700 439L800 307L900 229L900 155L800 215L700 317L600 335L500 269L400 293L300 269L200 305L100 377L0 311Z" fill="#383331"></path>
  <path d="M0 481L100 487L200 415L300 451L400 451L500 415L600 487L700 481L800 343L900 301L900 227L800 305L700 437L600 425L500 377L400 431L300 371L200 359L100 413L0 407Z" fill="#332e2c"></path>
  <path d="M0 505L100 517L200 451L300 487L400 469L500 445L600 517L700 487L800 361L900 355L900 299L800 341L700 479L600 485L500 413L400 449L300 449L200 413L100 485L0 479Z" fill="#2e2a28"></path>
  <path d="M0 601L100 601L200 601L300 601L400 601L500 601L600 601L700 601L800 601L900 601L900 353L800 359L700 485L600 515L500 443L400 467L300 485L200 449L100 515L0 503Z" fill="#292524"></path>
</svg>